<svg xmlns="http://www.w3.org/2000/svg" width="16" height="16" viewBox="0 0 67 67">
  <path d="M61.19,11.385l0,0-0.013.038a4.606,4.606,0,0,1-.167.5L56.4,25.626l0.011,0a6.611,6.611,0,0,0,1.058,6.006l0,0L65.977,43.1c0.048,0.06.093,0.124,0.138,0.187l0.186,0.25,0,0.012c0.073,0.116.143,0.235,0.206,0.359a4.581,4.581,0,0,1-3.762,6.644l-0.006.01-0.29,0c-0.07,0-.14,0-0.21,0L47.949,50.4H47.832v0a6.637,6.637,0,0,0-5.5,2.806l-0.007-.005-8.335,11.74c-0.046.069-.094,0.136-0.144,0.2l-0.15.212h-0.01A4.577,4.577,0,0,1,26.1,64.5c-0.065-.128-0.122-0.257-0.174-0.388l-0.013,0-0.122-.391c-0.01-.033-0.022-0.065-0.031-0.1L21.489,49.976l-0.006,0a6.61,6.61,0,0,0-4.226-4.39l0-.006L2.94,41.1l0-.016a4.566,4.566,0,0,1-.784-8.143l11.678-8.3-0.013-.017a6.672,6.672,0,0,0,2.771-5.276H16.6L16.441,4.368l0.015-.01A4.572,4.572,0,0,1,23.529.749l0.021-.008,12.02,8.935,0.011-.015a6.664,6.664,0,0,0,5.9.87l0,0.009L55.577,5.792l0.006,0A4.565,4.565,0,0,1,61.19,11.385Z" fill="black"/>
</svg>
